<?xml version="1.0" encoding="UTF-8" standalone="no"?><!-- Generator: Gravit.io --><svg xmlns="http://www.w3.org/2000/svg" xmlns:xlink="http://www.w3.org/1999/xlink" style="isolation:isolate" viewBox="0 0 64 64" width="64pt" height="64pt"><defs><clipPath id="_clipPath_Mu79eyKLfUc18VpRGyl5L9Pan0J20Zlb"><rect width="64" height="64"/></clipPath></defs><g clip-path="url(#_clipPath_Mu79eyKLfUc18VpRGyl5L9Pan0J20Zlb)"><path d=" M 51 42 C 51 40.348 49.652 39 48 39 L 40 39 C 38.348 39 37 40.348 37 42 L 37 54 C 37 55.652 38.348 57 40 57 L 48 57 C 49.652 57 51 55.652 51 54 L 51 42 Z  M 43 37 L 35.5 27 L 33 27 L 40.5 37 L 43 37 Z  M 39 10 C 39 8.348 37.652 7 36 7 L 28 7 C 26.348 7 25 8.348 25 10 L 25 22 C 25 23.652 26.348 25 28 25 L 36 25 C 37.652 25 39 23.652 39 22 L 39 10 Z  M 31 27 L 28.5 27 L 21 37 L 23.5 37 L 31 27 Z  M 27 42 C 27 40.348 25.652 39 24 39 L 16 39 C 14.348 39 13 40.348 13 42 L 13 54 C 13 55.652 14.348 57 16 57 L 24 57 C 25.652 57 27 55.652 27 54 L 27 42 Z " fill="rgb(30,112,235)"/></g></svg>