<?xml version="1.0" encoding="UTF-8" standalone="no"?><!-- Generator: Gravit.io --><svg xmlns="http://www.w3.org/2000/svg" xmlns:xlink="http://www.w3.org/1999/xlink" style="isolation:isolate" viewBox="0 0 256 256" width="256pt" height="256pt"><g><path d=" M 33.991 236.853 L 33.991 177.479 C 33.991 169.295 40.651 162.635 48.834 162.635 L 88.417 162.635 C 96.601 162.635 103.261 169.295 103.261 177.479 L 103.261 236.853 C 103.261 245.037 96.601 251.696 88.417 251.696 L 48.834 251.696 C 40.651 251.696 33.991 245.037 33.991 236.853 Z  M 152.739 236.853 L 152.739 177.479 C 152.739 169.295 159.399 162.635 167.583 162.635 L 207.166 162.635 C 215.349 162.635 222.009 169.295 222.009 177.479 L 222.009 236.853 C 222.009 245.037 215.349 251.696 207.166 251.696 L 167.583 251.696 C 159.399 251.696 152.739 245.037 152.739 236.853 Z  M 93.365 78.521 L 93.365 19.147 C 93.365 10.963 100.025 4.304 108.209 4.304 L 147.791 4.304 C 155.975 4.304 162.635 10.963 162.635 19.147 L 162.635 78.521 C 162.635 86.705 155.975 93.365 147.791 93.365 L 108.209 93.365 C 100.025 93.365 93.365 86.705 93.365 78.521 Z " fill="rgb(255,255,255)"/><path d=" M 145.317 103.261 L 132.948 103.261 L 170.057 152.739 L 182.426 152.739 L 145.317 103.261 Z " fill="rgb(255,255,255)"/><path d=" M 110.683 103.261 L 73.574 152.739 L 85.943 152.739 L 123.052 103.261 L 110.683 103.261 Z " fill="rgb(255,255,255)"/></g></svg>